<?xml version="1.0" encoding="UTF-8"?>
<!DOCTYPE svg PUBLIC "-//W3C//DTD SVG 1.1//EN" "http://www.w3.org/Graphics/SVG/1.1/DTD/svg11.dtd">
<!-- Creator: CorelDRAW -->
<svg xmlns="http://www.w3.org/2000/svg" xml:space="preserve" width="10.7938mm" height="13.8252mm" version="1.1" style="shape-rendering:geometricPrecision; text-rendering:geometricPrecision; image-rendering:optimizeQuality; fill-rule:evenodd; clip-rule:evenodd"
viewBox="0 0 20.94 26.82"
 xmlns:xlink="http://www.w3.org/1999/xlink"
 xmlns:xodm="http://www.corel.com/coreldraw/odm/2003">
 <defs>
  <style type="text/css">
   <![CDATA[
    .fil1 {fill:#3BD42D}
    .fil0 {fill:#5E49FF}
   ]]>
  </style>
 </defs>
 <g id="Camada_x0020_1">
  <metadata id="CorelCorpID_0Corel-Layer"/>
  <path class="fil0" d="M0.07 5.75l0.13 20.96c2.25,0.94 9.73,-4.21 12.08,-5.62 2.72,-1.63 7.31,-5.6 8.66,-7.71 -1.02,-2.27 -13.82,-10.36 -16.97,-12.23 -4.83,-2.87 -3.89,-0.04 -3.89,4.6z"/>
  <g id="_2049970047440">
   <path class="fil1" d="M14.22 15.55c-1.75,7.09 -12.11,4.48 -10.61,-2.41 0.56,-2.56 3.26,-4.88 6.55,-4.15 2.49,0.56 4.85,3.36 4.06,6.56zm2.82 8.74c0.5,-0.18 1.58,-1.15 1.85,-1.74 0.03,-0.47 -2.35,-2.66 -2.97,-3.3 -1.18,-1.22 -1.75,0.17 -1.88,-0.74 -0.08,-0.53 2.09,-2.25 1.14,-5.88 -1.13,-4.35 -6.79,-6.53 -10.61,-3.1 -4.98,4.48 -0.61,12.64 5.92,11.09 0.98,-0.23 2.49,-1.37 2.82,-1.01 0.57,0.64 -0.58,0.18 0.25,1.42 0.13,0.2 2.9,3 3.48,3.26z"/>
   <path class="fil1" d="M13.33 14.75c1.44,-2.1 -3.08,-6.22 -5.03,-4.98 -1.78,1.12 2.8,0.12 4,3.35 0.39,1.05 -0.02,1.6 1.04,1.63z"/>
  </g>
 </g>
</svg>
