<svg width="27" height="34" viewBox="0 0 27 34" fill="none" xmlns="http://www.w3.org/2000/svg">
<path d="M11.9136 1.0048L12.0736 1.032L25.6736 4.232C25.9096 4.28722 26.1234 4.41262 26.2868 4.5917C26.4501 4.77077 26.5554 4.99512 26.5888 5.2352L26.6 5.4V28.6C26.6001 28.8424 26.5268 29.0792 26.3897 29.2791C26.2526 29.479 26.0582 29.6328 25.832 29.72L25.6752 29.768L12.0752 32.968C11.9125 33.0064 11.7436 33.0103 11.5792 32.9795C11.4149 32.9487 11.2588 32.884 11.121 32.7894C10.9832 32.6948 10.8666 32.5724 10.7788 32.4302C10.691 32.2879 10.6339 32.1288 10.6112 31.9632L10.6 31.8V2.2C10.5998 1.88909 10.7203 1.59023 10.9361 1.36639C11.1519 1.14255 11.4461 1.01119 11.7568 1L11.9136 1.0048V1.0048ZM13 3.7152V30.2848L24.2 27.6496V6.3504L13 3.7152ZM9.00001 4.2V6.6H3.4V27.4H9.00001V29.8H2.2C1.91002 29.8 1.62985 29.695 1.41131 29.5044C1.19277 29.3138 1.05064 29.0505 1.0112 28.7632L1 28.6V5.4C1.00001 5.11002 1.10503 4.82986 1.29563 4.61131C1.48623 4.39277 1.74951 4.25064 2.0368 4.2112L2.2 4.2H9.00001ZM17 15.4C17.4244 15.4 17.8313 15.5686 18.1314 15.8686C18.4314 16.1687 18.6 16.5757 18.6 17C18.6 17.4244 18.4314 17.8313 18.1314 18.1314C17.8313 18.4314 17.4244 18.6 17 18.6C16.5757 18.6 16.1687 18.4314 15.8686 18.1314C15.5686 17.8313 15.4 17.4244 15.4 17C15.4 16.5757 15.5686 16.1687 15.8686 15.8686C16.1687 15.5686 16.5757 15.4 17 15.4V15.4Z" fill="#5E49FF" stroke="#4D4C4D" stroke-width="0.5"/>
</svg>

