<?xml version="1.0" standalone="no"?>
<!DOCTYPE svg PUBLIC "-//W3C//DTD SVG 20010904//EN"
 "http://www.w3.org/TR/2001/REC-SVG-20010904/DTD/svg10.dtd">
<svg version="1.0" xmlns="http://www.w3.org/2000/svg"
 width="1024.000000pt" height="1024.000000pt" viewBox="0 0 1024.000000 1024.000000"
 preserveAspectRatio="xMidYMid meet">

<g transform="translate(0.000000,1024.000000) scale(0.100000,-0.100000)"
fill="#000000" stroke="none">
<path d="M7743 8686 c-160 -39 -294 -74 -298 -77 -7 -8 526 -339 546 -339 8 0
67 12 132 27 l119 27 -6 31 c-3 16 -23 104 -45 195 -44 183 -61 211 -124 209
-18 -1 -163 -33 -324 -73z"/>
<path d="M6515 8390 c-60 -15 -228 -56 -372 -91 -145 -34 -263 -65 -263 -68 0
-3 21 -19 48 -35 136 -84 230 -142 356 -221 l140 -86 388 92 c296 71 385 96
376 105 -26 23 -539 334 -551 333 -7 0 -61 -13 -122 -29z"/>
<path d="M4692 7951 c-199 -49 -365 -91 -368 -94 -3 -3 5 -12 18 -20 12 -8
109 -67 213 -132 105 -64 214 -132 243 -152 30 -19 61 -35 70 -35 10 -1 105
20 212 47 107 26 260 63 339 81 79 19 162 39 184 45 l40 11 -44 28 c-225 142
-509 310 -525 309 -10 0 -182 -40 -382 -88z"/>
<path d="M3295 7614 c-121 -30 -426 -104 -678 -164 l-458 -110 -130 0 -129 0
0 -490 0 -490 48 0 47 0 0 -2003 0 -2002 22 -48 c13 -26 18 -45 13 -42 -5 3
-21 0 -36 -8 l-26 -14 35 -16 c54 -26 379 -54 717 -63 63 -1 1062 -3 2220 -4
2013 0 2570 5 2955 31 291 19 375 35 375 74 0 11 8 34 18 50 16 28 17 150 20
2052 l2 2022 23 3 c22 3 22 3 25 236 l2 232 -132 0 -132 0 -226 -225 -226
-225 -392 0 c-216 0 -392 3 -392 8 0 4 95 102 210 217 116 115 210 213 210
217 0 5 -176 8 -392 8 l-392 0 -226 -225 -227 -225 -397 -2 c-218 -2 -396 0
-396 5 0 4 97 105 215 224 118 119 215 218 215 220 0 2 -179 3 -398 3 l-397 0
-225 -225 -225 -225 -392 0 c-216 0 -393 3 -393 7 0 4 98 106 217 225 l218
218 -712 0 -711 0 -41 47 c-22 26 -37 50 -33 54 4 3 113 31 242 62 129 31 406
98 615 148 209 50 438 105 509 123 l130 32 -270 166 c-148 92 -276 169 -284
172 -8 2 -114 -20 -235 -50z m-1153 -481 c25 -23 23 -68 -4 -87 -31 -22 -60
-20 -81 4 -50 59 28 135 85 83z m-2 -463 c26 -26 25 -62 -2 -87 -29 -27 -71
-21 -88 12 -33 63 41 124 90 75z m467 -8 c20 -26 15 -51 -14 -78 -29 -27 -57
-25 -84 6 -34 40 9 107 60 95 14 -4 31 -14 38 -23z m1876 -766 c81 -34 129
-120 130 -230 0 -88 -23 -146 -81 -198 -46 -41 -87 -53 -168 -46 -206 17 -253
372 -63 466 51 25 133 29 182 8z m563 -17 c23 -16 51 -48 69 -80 26 -47 30
-64 29 -134 0 -104 -28 -165 -98 -212 -42 -29 -57 -33 -113 -33 -99 0 -148 30
-193 120 -32 61 -33 175 -4 240 24 52 66 97 109 117 49 22 154 13 201 -18z
m843 20 c36 -13 45 -46 9 -34 -48 15 -138 17 -169 4 -38 -15 -63 -67 -54 -110
8 -34 35 -50 132 -80 89 -28 123 -62 123 -123 0 -62 -17 -94 -62 -117 -65 -33
-228 -21 -228 18 0 11 6 13 23 8 12 -4 57 -10 99 -12 76 -5 78 -4 108 25 23
24 30 39 30 69 0 62 -27 83 -150 117 -67 18 -100 50 -107 103 -7 50 16 97 60
123 37 23 133 27 186 9z m-406 -13 c46 -19 69 -49 74 -98 10 -98 -64 -158
-194 -158 l-73 0 0 -106 c0 -80 -3 -105 -12 -102 -10 4 -14 63 -16 241 l-2
237 95 0 c58 0 108 -5 128 -14z m744 -153 c-7 -154 -10 -183 -21 -172 -2 2 -6
79 -8 172 -3 159 -2 167 16 167 18 0 19 -7 13 -167z m9 -285 c-1 -16 -7 -23
-21 -23 -13 0 -21 8 -23 23 -3 18 1 22 21 22 19 0 24 -5 23 -22z m-854 -330
c128 -59 208 -184 259 -404 30 -128 38 -436 15 -590 -38 -256 -135 -428 -284
-501 -79 -38 -211 -45 -294 -13 -67 25 -143 89 -187 159 -41 63 -85 186 -108
297 -25 126 -25 472 0 597 45 224 136 378 262 444 95 50 241 55 337 11z m-920
-465 l3 -478 98 -3 97 -3 0 -69 0 -69 -97 -3 -98 -3 -5 -210 -5 -211 -92 -3
-93 -3 -2 214 -3 213 -297 3 -298 2 0 57 c0 55 4 63 152 312 83 141 214 363
291 494 l139 237 104 0 104 0 2 -477z m2119 19 c1 -250 4 -465 7 -478 4 -23 7
-24 98 -24 l94 0 0 -70 0 -70 -94 0 c-89 0 -94 -1 -99 -22 -3 -13 -6 -110 -6
-215 l0 -193 24 0 c18 0 25 -5 25 -20 0 -15 -7 -20 -26 -20 -23 0 -25 -3 -22
-42 2 -36 7 -44 26 -46 35 -5 30 -42 -6 -42 -46 0 -64 21 -70 78 -4 42 -8 52
-23 52 -28 0 -25 38 4 43 12 2 -11 4 -50 5 -40 0 -73 -3 -73 -7 0 -4 18 -16
41 -26 51 -23 72 -54 63 -89 -13 -53 -76 -71 -136 -40 -28 14 -29 17 -15 31
13 14 20 14 47 3 27 -11 34 -11 47 3 13 13 14 19 4 31 -7 8 -23 18 -34 22 -34
10 -67 45 -67 70 0 12 11 31 25 42 l25 20 0 181 0 181 -295 0 -295 0 0 63 c0
70 -47 -18 380 706 l195 331 102 -2 102 -3 2 -453z m-257 -1018 c7 -19 -10
-44 -31 -44 -17 0 -27 24 -19 45 7 20 42 19 50 -1z m716 -45 l0 -60 33 25 c19
15 47 26 62 26 l29 0 -39 -40 -39 -40 44 -45 44 -45 -30 0 c-21 0 -39 10 -59
30 -16 17 -32 30 -37 30 -4 0 -8 -13 -8 -30 0 -23 -4 -30 -20 -30 -19 0 -20 7
-20 120 0 113 1 120 20 120 18 0 20 -7 20 -61z m127 29 c-3 -8 -6 -5 -6 6 -1
11 2 17 5 13 3 -3 4 -12 1 -19z m34 13 c7 11 9 10 9 -3 0 -10 -7 -18 -15 -18
-8 0 -15 8 -14 18 0 12 2 13 6 3 5 -11 7 -11 14 0z m-881 -137 c0 -83 -1 -85
-22 -82 -21 3 -23 9 -26 72 -4 82 1 96 28 96 19 0 20 -6 20 -86z m465 61 c17
-16 25 -35 25 -60 0 -25 -8 -44 -25 -60 -52 -53 -145 -16 -145 58 0 76 92 116
145 62z m175 7 c20 -16 20 -19 7 -31 -12 -9 -21 -10 -36 -1 -29 15 -61 -3 -61
-35 0 -32 32 -50 61 -34 17 9 25 8 37 -5 15 -14 14 -17 -3 -31 -24 -17 -84
-19 -106 -2 -46 35 -50 88 -10 128 34 34 77 38 111 11z m-210 -337 c0 -73 -1
-75 -25 -75 -20 0 -25 -5 -25 -25 0 -17 8 -29 23 -35 22 -10 22 -10 -3 -7 -20
2 -26 8 -28 34 -2 24 -9 33 -25 35 -12 2 -26 13 -32 26 -10 22 -55 32 -55 11
0 -5 5 -7 10 -4 6 3 13 -2 17 -12 4 -10 16 -26 28 -35 28 -24 10 -52 -36 -55
l-34 -1 35 6 c44 9 53 38 15 52 -47 18 -69 12 -85 -23 -10 -22 -23 -33 -41
-35 -41 -5 -61 27 -67 107 l-5 69 42 0 c42 1 56 -16 21 -25 -25 -7 -26 -23 -1
-23 10 0 26 11 35 25 26 40 106 27 106 -18 0 -7 6 -1 13 13 9 17 22 26 45 28
24 2 32 8 32 23 0 12 7 19 20 19 18 0 20 -7 20 -75z m50 60 c0 -8 -7 -15 -15
-15 -8 0 -15 7 -15 15 0 8 7 15 15 15 8 0 15 -7 15 -15z m390 -60 c0 -60 -3
-75 -15 -75 -12 0 -15 15 -15 75 0 60 3 75 15 75 12 0 15 -15 15 -75z m60 66
c0 -14 -18 -23 -30 -16 -6 4 -8 11 -5 16 8 12 35 12 35 0z m-851 -15 c8 -10 9
-16 1 -21 -14 -9 -13 -62 3 -68 10 -4 10 -7 0 -18 -7 -7 -14 -29 -15 -48 l-1
-36 -4 33 c-4 29 -7 32 -38 32 -24 0 -39 7 -53 25 -25 31 -72 35 -72 6 0 -12
11 -23 30 -30 22 -7 30 -16 30 -34 0 -26 -17 -38 -53 -36 -16 1 -14 3 8 8 43
9 46 43 5 58 -25 9 -31 17 -28 35 2 18 10 24 36 26 25 3 32 8 32 24 0 34 29
58 70 58 21 0 43 -6 49 -14z m461 -1 c0 -8 9 -15 20 -15 11 0 20 -4 20 -10 0
-5 -9 -10 -20 -10 -15 0 -20 -7 -20 -29 0 -20 6 -30 20 -34 33 -9 23 -29 -12
-25 -31 3 -33 6 -36 43 -2 22 -9 44 -15 48 -9 6 -9 10 1 14 6 2 12 11 12 19 0
8 7 14 15 14 8 0 15 -7 15 -15z m278 3 c7 -7 12 -21 12 -33 0 -30 -19 -45 -57
-45 -29 0 -33 -3 -33 -25 0 -16 -6 -25 -15 -25 -12 0 -15 14 -15 70 l0 70 48
0 c26 0 53 -5 60 -12z m-2989 -118 c4 0 18 11 31 25 13 14 28 25 34 25 6 0 -5
-14 -24 -30 l-35 -29 35 -38 35 -38 -35 33 c-20 17 -39 32 -42 32 -4 0 -9 -15
-11 -32 -2 -18 -4 14 -3 72 0 58 1 77 3 43 2 -35 7 -63 12 -63z m831 45 l35 0
1 -65 1 -65 -6 60 c-5 51 -9 60 -27 63 -29 4 -42 -16 -47 -73 -2 -28 -4 -3 -4
55 0 60 3 88 6 65 6 -38 8 -40 41 -40z m-553 -72 c-2 -27 -3 -5 -3 47 0 52 1
74 3 48 2 -27 2 -69 0 -95z m116 87 c-3 -59 6 -68 37 -35 13 14 28 25 34 25 6
-1 -4 -13 -21 -29 l-33 -27 30 -29 c17 -16 30 -33 30 -39 0 -5 -15 4 -33 22
-40 39 -51 40 -43 7 4 -14 2 -25 -4 -25 -6 0 -10 36 -10 90 0 50 4 90 8 90 5
0 7 -22 5 -50z m-773 -131 l45 -6 -52 -1 -53 -2 2 93 2 92 5 -85 6 -85 45 -6z
m3030 116 c0 -42 -3 -55 -15 -55 -12 0 -15 13 -15 55 0 42 3 55 15 55 12 0 15
-13 15 -55z m148 38 c2 -8 -5 -13 -17 -13 -12 0 -21 6 -21 16 0 18 31 15 38
-3z m302 -38 c0 -42 -3 -55 -15 -55 -12 0 -15 13 -15 55 0 42 3 55 15 55 12 0
15 -13 15 -55z m108 36 c4 -11 -2 -13 -27 -8 -17 4 -31 3 -31 -2 0 -5 14 -11
30 -15 59 -11 46 -66 -15 -66 -18 0 -38 6 -44 14 -17 20 3 30 30 16 13 -8 25
-8 31 -2 6 6 -2 12 -22 15 -32 7 -46 27 -36 53 7 19 77 16 84 -5z m190 -38 c2
-43 0 -53 -12 -53 -12 0 -16 11 -16 41 0 33 -3 40 -17 37 -13 -2 -19 -14 -21
-41 -5 -54 -32 -51 -32 4 0 33 -3 40 -17 37 -13 -2 -19 -14 -21 -41 -2 -24 -8
-37 -18 -37 -10 0 -14 14 -14 54 l0 54 83 -2 82 -1 3 -52z m120 10 c2 -24 7
-43 13 -43 5 0 9 -4 9 -9 0 -6 -26 -9 -57 -8 -55 2 -58 3 -58 27 0 20 7 27 34
36 20 7 29 14 22 18 -6 4 -16 4 -21 1 -6 -4 -18 -4 -28 0 -27 10 6 26 48 23
34 -3 35 -5 38 -45z m130 -10 c2 -43 0 -53 -12 -53 -12 0 -16 11 -16 41 0 33
-3 40 -17 37 -13 -2 -19 -14 -21 -41 -2 -24 -8 -37 -18 -37 -10 0 -14 14 -14
54 l0 55 48 -2 47 -2 3 -52z m-2925 6 c22 -2 22 -2 0 -6 -20 -4 -23 -11 -23
-54 0 -42 3 -51 23 -59 22 -9 22 -9 1 -9 -26 -1 -34 16 -34 75 0 28 -5 44 -12
45 -10 0 -10 2 0 6 6 2 13 12 13 21 1 15 2 15 6 0 2 -10 14 -19 26 -19z m-939
-15 c35 -34 7 -114 -39 -114 -47 0 -72 60 -45 111 13 23 62 26 84 3z m146 -3
c26 -49 2 -111 -42 -111 -51 0 -77 72 -41 112 22 24 69 24 83 -1z m213 12
c-43 -6 -44 -34 -2 -50 25 -10 30 -16 27 -40 -3 -24 -8 -28 -38 -30 -34 -1
-34 -1 -5 5 42 10 45 40 6 55 -21 8 -31 18 -31 33 0 28 8 34 44 32 l31 -1 -32
-4z m435 -5 c7 -7 12 -20 12 -30 0 -14 -8 -18 -39 -18 -22 0 -42 -4 -45 -8
-10 -17 25 -51 57 -55 32 -4 32 -4 -5 -5 -42 -2 -68 24 -68 67 0 48 57 80 88
49z m349 -85 c-2 -21 -4 -6 -4 32 0 39 2 55 4 38 2 -18 2 -50 0 -70z m86 90
c-43 -5 -44 -34 -3 -50 57 -21 47 -74 -14 -72 l-31 1 30 7 c43 9 46 43 5 58
-19 7 -30 18 -30 30 0 27 9 33 44 31 l31 -1 -32 -4z m213 -4 c19 -16 18 -84
-3 -104 -10 -10 -27 -15 -44 -13 -26 4 -28 1 -32 -31 -2 -20 -4 7 -5 59 l-2
96 36 2 c20 2 42 -2 50 -9z m134 -8 c5 -11 10 -37 10 -59 0 -38 -2 -40 -36
-46 -39 -8 -64 5 -64 34 0 26 26 43 55 37 22 -4 26 -1 23 17 -2 15 -12 23 -38
27 l-35 6 37 2 c28 1 40 -4 48 -18z m150 -59 c0 -97 -9 -112 -63 -110 -40 1
-40 1 -7 5 35 4 60 25 60 49 0 9 -10 11 -33 7 -40 -6 -61 15 -61 62 0 47 19
66 65 63 l39 -2 0 -74z m130 59 c18 -34 11 -41 -35 -41 -29 0 -45 -4 -45 -12
0 -24 17 -40 51 -48 34 -8 34 -8 5 -9 -38 -1 -66 25 -66 61 0 45 17 68 50 68
19 0 33 -7 40 -19z m121 -43 l13 -53 15 53 c9 30 21 53 26 53 6 0 17 -23 26
-53 l16 -53 12 45 c17 62 21 74 26 69 5 -6 -25 -111 -35 -123 -5 -5 -16 18
-26 50 l-17 59 -18 -54 c-11 -30 -21 -56 -23 -58 -2 -2 -12 20 -21 49 -10 29
-20 59 -23 67 -3 8 -1 12 5 8 6 -4 17 -31 24 -59z m249 43 c5 -11 10 -38 10
-60 0 -38 -2 -40 -35 -47 -37 -7 -65 7 -65 32 0 18 28 44 48 43 12 0 10 -3 -6
-10 -32 -12 -27 -54 7 -54 27 0 54 34 33 42 -9 4 -10 9 -2 18 17 20 1 44 -33
48 l-32 4 32 1 c23 2 35 -4 43 -17z m-1670 -46 c0 -30 -4 -55 -10 -55 -5 0
-10 25 -10 55 0 30 5 55 10 55 6 0 10 -25 10 -55z m2453 20 c1 -5 -6 -11 -15
-13 -11 -2 -18 3 -18 13 0 17 30 18 33 0z m-1995 -291 l37 1 1 -65 1 -65 -4
58 c-4 62 -17 76 -52 58 -15 -9 -21 -23 -24 -64 -2 -28 -3 -5 -3 53 0 58 1 87
3 64 4 -40 5 -41 41 -40z m852 47 c0 -3 -19 -6 -42 -6 -39 0 -43 -2 -46 -26
-3 -24 2 -29 40 -41 35 -12 44 -20 46 -42 5 -40 -14 -56 -62 -55 -25 1 -31 3
-16 6 67 10 71 13 68 41 -2 20 -11 30 -36 38 -67 21 -81 73 -24 92 27 9 72 5
72 -7z m-1660 -50 c-38 -10 -38 -39 0 -52 26 -9 31 -16 28 -38 -3 -23 -8 -26
-43 -28 l-40 -1 35 6 c43 8 50 43 11 52 -55 13 -48 71 8 69 l26 -1 -25 -7z
m154 -7 c19 -18 21 -85 4 -102 -18 -18 -69 -15 -84 6 -45 59 28 148 80 96z
m140 7 c4 -6 18 -5 35 2 45 17 61 -3 59 -72 l-2 -56 -3 57 c-3 46 -8 58 -24
63 -32 11 -49 -12 -50 -69 l-2 -51 -6 50 c-7 55 -16 75 -34 75 -28 -1 -42 -22
-48 -72 l-6 -53 -2 65 -1 65 39 3 c22 1 42 -2 45 -7z m220 -7 c18 -18 21 -44
5 -44 -5 0 -7 5 -4 10 8 13 -13 40 -31 40 -7 0 -20 -7 -29 -16 -13 -13 -13
-19 -3 -32 10 -12 10 -14 1 -8 -8 4 -13 2 -13 -6 0 -25 24 -47 55 -51 27 -4
26 -4 -7 -6 -42 -1 -58 17 -58 68 0 34 22 61 50 61 10 0 26 -7 34 -16z m87
-84 c4 0 12 20 18 44 6 25 15 47 21 51 5 3 17 -20 26 -52 l17 -57 17 54 c22
68 26 53 5 -18 -9 -29 -20 -50 -24 -48 -5 3 -14 26 -21 51 -7 25 -16 45 -19
45 -4 0 -13 -22 -20 -50 -7 -27 -16 -50 -21 -50 -7 0 -41 108 -39 126 1 5 9
-15 18 -43 8 -29 19 -53 22 -53z m377 88 c14 -14 16 -58 2 -58 -5 0 -7 7 -4
15 7 18 -12 45 -32 45 -17 0 -45 -30 -38 -41 3 -5 11 -7 17 -3 7 3 4 -1 -6 -9
-29 -24 -6 -57 41 -59 l37 -1 -33 -4 c-62 -8 -93 52 -56 105 17 24 53 29 72
10z m100 -4 c-27 -14 -34 -33 -30 -91 0 -13 -3 -23 -9 -23 -5 0 -9 27 -9 59 0
54 2 60 23 64 44 9 52 6 25 -9z m126 0 c19 -18 21 -44 4 -44 -6 0 -8 3 -5 6
11 12 -13 44 -33 44 -24 0 -34 -16 -37 -57 -2 -36 10 -49 52 -56 27 -4 27 -4
-7 -6 -43 -1 -58 17 -58 73 0 51 50 75 84 40z m176 -64 l-7 -55 -1 70 c-1 41
2 64 7 55 4 -8 5 -40 1 -70z m80 61 c5 -11 9 -41 9 -68 l-2 -48 -6 50 c-8 65
-17 78 -48 70 -16 -4 -22 -2 -18 5 11 17 54 11 65 -9z m334 3 c20 -19 21 -74
3 -98 -10 -14 -23 -17 -45 -14 -29 4 -31 2 -35 -31 -2 -20 -4 5 -5 56 -2 80 0
92 16 96 34 9 51 7 66 -9z m122 8 c6 -4 13 -32 16 -63 l4 -57 -45 2 c-40 1
-46 4 -49 25 -5 31 10 44 48 43 44 -1 42 34 -2 47 -29 8 -30 9 -8 10 14 0 30
-3 36 -7z m144 -1 c0 -4 -10 -6 -23 -4 -28 6 -49 -17 -49 -52 0 -34 18 -53 55
-58 31 -4 31 -4 -5 -5 -30 -2 -41 3 -54 23 -19 29 -11 80 14 95 21 12 62 13
62 1z m117 -3 c16 -21 23 -48 13 -48 -6 0 -10 9 -10 20 0 25 -27 37 -49 23
-19 -12 -25 -77 -8 -91 7 -6 26 -12 42 -15 28 -4 28 -4 -6 -6 -44 -1 -63 18
-63 64 0 18 6 40 13 49 16 19 55 21 68 4z m-848 -46 c-1 -70 -18 -82 -18 -14
-1 40 3 61 9 57 6 -3 10 -23 9 -43z"/>
<path d="M4315 5862 c-68 -43 -95 -101 -95 -202 0 -82 14 -123 59 -167 32 -30
105 -57 133 -49 7 2 25 7 40 10 45 10 95 62 114 118 33 100 1 230 -69 282 -40
29 -141 34 -182 8z"/>
<path d="M4850 5861 c-19 -10 -48 -36 -64 -59 -24 -34 -30 -54 -34 -115 -5
-84 7 -133 45 -178 68 -80 189 -83 260 -7 49 52 68 160 43 250 -30 106 -154
161 -250 109z"/>
<path d="M5290 5765 l0 -105 70 0 c123 0 184 55 159 144 -13 47 -57 66 -153
66 l-76 0 0 -105z"/>
<path d="M5180 4988 c-109 -30 -176 -181 -201 -457 -27 -296 20 -607 110 -719
82 -104 214 -88 283 34 112 200 119 781 12 1014 -48 106 -120 151 -204 128z"/>
<path d="M4216 4792 c-31 -61 -119 -221 -196 -358 -77 -136 -140 -251 -140
-256 0 -5 87 -7 193 -6 l192 3 6 360 c3 198 5 361 3 363 -1 2 -27 -46 -58
-106z"/>
<path d="M6343 4797 c-29 -56 -74 -140 -101 -187 -155 -272 -242 -428 -242
-434 0 -3 87 -6 194 -6 l193 0 5 348 c3 191 9 355 13 365 4 9 3 17 -1 17 -5 0
-32 -46 -61 -103z"/>
<path d="M6708 3549 c-38 -22 -11 -88 31 -74 29 9 36 42 15 66 -20 22 -22 22
-46 8z"/>
<path d="M6545 3250 c-3 -5 3 -10 15 -10 12 0 18 5 15 10 -3 6 -10 10 -15 10
-5 0 -12 -4 -15 -10z"/>
<path d="M6663 3234 c-6 -17 13 -42 24 -30 4 4 1 11 -7 16 -10 7 -11 10 -2 10
6 0 12 5 12 10 0 16 -20 12 -27 -6z"/>
<path d="M6460 3195 c0 -14 -4 -25 -10 -25 -15 0 -12 -36 5 -50 22 -18 64 -4
71 24 7 30 -21 76 -47 76 -14 0 -19 -7 -19 -25z"/>
<path d="M6540 3210 c0 -5 7 -10 15 -10 8 0 15 5 15 10 0 6 -7 10 -15 10 -8 0
-15 -4 -15 -10z"/>
<path d="M6315 3261 c-11 -36 3 -63 33 -59 24 3 27 8 27 38 0 30 -3 35 -27 38
-19 2 -28 -2 -33 -17z"/>
<path d="M7060 3265 c0 -12 7 -15 25 -13 14 2 26 8 26 13 0 6 -12 11 -26 13
-18 2 -25 -1 -25 -13z"/>
<path d="M7610 3210 c-8 -5 -11 -12 -8 -16 10 -9 38 3 38 16 0 12 -10 13 -30
0z"/>
<path d="M3862 3208 c-17 -17 -15 -64 4 -82 43 -43 94 17 64 75 -12 21 -50 25
-68 7z"/>
<path d="M3999 3196 c-24 -52 15 -101 61 -76 23 12 28 68 8 88 -21 21 -57 14
-69 -12z"/>
<path d="M4667 3213 c-18 -18 -5 -33 29 -33 29 0 35 3 30 16 -3 9 -6 18 -6 20
0 7 -46 5 -53 -3z"/>
<path d="M5307 3213 c-4 -3 -7 -26 -7 -49 0 -38 3 -44 25 -50 15 -4 32 -1 40
6 18 15 20 71 3 88 -13 13 -50 16 -61 5z"/>
<path d="M5441 3157 c-15 -18 -4 -47 18 -47 26 0 43 16 39 36 -4 23 -40 30
-57 11z"/>
<path d="M5582 3208 c-17 -17 -15 -73 3 -88 8 -7 25 -10 40 -6 21 5 25 12 25
44 0 40 -14 62 -40 62 -9 0 -21 -5 -28 -12z"/>
<path d="M5722 3208 c-21 -21 -13 -28 28 -28 22 0 40 4 40 8 0 14 -23 32 -40
32 -9 0 -21 -5 -28 -12z"/>
<path d="M4226 2874 c-31 -30 -12 -94 27 -94 30 0 47 18 47 48 0 55 -40 80
-74 46z"/>
<path d="M5872 2881 c-9 -5 -12 -24 -10 -52 3 -37 7 -45 26 -47 30 -5 52 14
52 45 0 51 -32 77 -68 54z"/>
<path d="M5993 2814 c-8 -21 10 -36 38 -32 16 2 25 11 27 26 3 19 -1 22 -28
22 -19 0 -33 -6 -37 -16z"/>
</g>
</svg>
